<?xml version="1.0" encoding="utf-8"?>
<!-- Generator: Adobe Illustrator 24.1.2, SVG Export Plug-In . SVG Version: 6.00 Build 0)  -->
<svg version="1.1" id="Camada_1" xmlns="http://www.w3.org/2000/svg" xmlns:xlink="http://www.w3.org/1999/xlink" x="0px" y="0px"
	 viewBox="0 0 64 64" style="enable-background:new 0 0 64 64;" xml:space="preserve">
<polygon points="55,9 9,55 9,17 17,9 "/>
<g>
	<path d="M9,4c2.8,0,5,2.2,5,5s-2.2,5-5,5s-5-2.2-5-5S6.2,4,9,4 M9,0C4,0,0,4,0,9s4,9,9,9s9-4,9-9S14,0,9,0L9,0z"/>
</g>
<g>
	<path d="M55,50c2.8,0,5,2.2,5,5s-2.2,5-5,5s-5-2.2-5-5S52.2,50,55,50 M55,46c-5,0-9,4-9,9s4,9,9,9s9-4,9-9S60,46,55,46L55,46z"/>
</g>
<g>
	<circle cx="9" cy="55" r="9"/>
</g>
<g>
	<circle cx="55" cy="9" r="9"/>
</g>
<rect x="7" y="17" width="4" height="30"/>
<rect x="53" y="17" width="4" height="30"/>
<rect x="30" y="40" transform="matrix(6.123234e-17 -1 1 6.123234e-17 -23 87)" width="4" height="30"/>
<rect x="30" y="-6" transform="matrix(6.123234e-17 -1 1 6.123234e-17 23 41)" width="4" height="30"/>
</svg>
